<?xml version="1.0" standalone="no"?> <!DOCTYPE svg PUBLIC "-//W3C//DTD SVG 1.0//EN" "http://www.w3.org/TR/2001/REC-SVG-20010904/DTD/svg10.dtd" > <svg xmlns="http://www.w3.org/2000/svg" width="100%" height="100%">
<defs >
<font horiz-adv-x="536" ><font-face
    font-family="Slimbits"
    units-per-em="2048"
    panose-1="2 0 4 3 3 2 2 1 0 0"
    ascent="1650"
    descent="-600"
    alphabetic="0" />
<missing-glyph horiz-adv-x="1536" d="M256 0V1280H1280V0H256ZM288 32H1248V1248H288V32Z" />
<glyph unicode=" " glyph-name="space" horiz-adv-x="601" />
<glyph unicode="!" glyph-name="exclam" horiz-adv-x="268" d="M187 1399L180 956L178 552L181 547V543L178 539L191 335L136 334L142 1391V1401L187 1399ZM198 114T207 89T194 10L118 34Q121 108 159 111Z" />
<glyph unicode="&quot;" glyph-name="quotedbl" horiz-adv-x="727" />
<glyph unicode="#" glyph-name="numbersign" horiz-adv-x="928" d="M833 1398L759 1011V996H774L895 997L888 959Q803 950 778 950H743L673 546L810 549L824 516L813 499L671 500L642 324L574 1L537 2L627 500L313 505Q222 99 187 0H167L157 10L268 506L238 511H74L86
556H258Q293 556 305 680L349 946H303L133 947L126 991H359L440 1396L477 1390L420 1117L404 986L718 991L758 1192L799 1396L833 1398ZM400 946L324 551L635 548L703 946L698 950L400 946Z" />
<glyph unicode="$" glyph-name="dollar" horiz-adv-x="514" d="M283 709L288 355L293 24Q396 70 421 213L425 265Q430 455 388 538T289 700Q286 704 283 709ZM255 1370Q181 1344 154 1302Q116 1244 116 1175V1128Q109 1006 254 815Q254 1062 255 1370ZM291 1414Q304
1416 318 1416Q403 1413 451 1317L494 1227L472 1210Q431 1302 406 1332T312 1386Q301 1383 290 1381L280 895L282 777Q386 631 427 546Q471 451 460 295Q464 144 403 70Q348 4 294 -14L295 -92H261L263 -17Q68 -4 3 291L43 303Q52 174 138 82Q205 20 263 16L264
53Q256 286 255 749Q211 811 159 891Q77 1034 77 1141V1145Q83 1295 155 1354Q201 1392 255 1407V1498L293 1508L291 1414Z" />
<glyph unicode="%" glyph-name="percent" horiz-adv-x="473" d="M390 1394H398Q419 1386 419 1366V1361Q404 1325 358 1126Q159 375 81 134Q69 108 61 37Q40 4 33 4H20Q3 14 0 24L4 28H0Q73 204 106 337L102 350Q124 350 154 508Q293 982 293 1036Q362 1244 362
1305Q374 1383 390 1394ZM114 1386Q187 1374 187 1337Q207 1285 207 1252V1211Q207 1135 138 1085L110 1081Q59 1081 37 1170Q31 1299 98 1382L102 1386H114ZM77 1183V1146L102 1122H122Q175 1169 175 1215Q175 1316 138 1337H134Q47 1282 77 1183ZM305 354Q357
354 382 248Q388 238 394 146Q374 0 313 0Q252 0 252 53Q228 147 228 195Q228 279 293 354H305ZM268 248V195Q268 41 313 41Q354 84 354 126V211Q354 275 313 313H309Q295 310 268 248Z" />
<glyph unicode="&amp;" glyph-name="ampersand" horiz-adv-x="722" d="M360 1405Q451 1355 434 1210L371 1007L303 870Q394 574 508 336Q570 438 592 528L629 541Q606 431 523 301Q632 81 680 -1L629 0L508 257L504 261H500Q493 261 432 162Q301 0 208 0Q63 0
19 104L0 203L4 236L0 240V245Q0 327 83 551Q196 769 261 883Q202 1166 213 1239Q240 1383 360 1405ZM233 1145T288 933Q341 994 386 1156T352 1364Q289 1361 250 1248Q233 1145 288 933ZM34 220Q34 91 117 54L163 46H208Q335 46 481 307V323Q363 568 284 821Q247
790 206 696Q107 541 76 435Q34 277 34 220Z" />
<glyph unicode="&apos;" glyph-name="quotesingle" horiz-adv-x="391" />
<glyph unicode="(" glyph-name="parenleft" horiz-adv-x="380" d="M294 1430L333 1422Q207 1223 144 1017Q95 888 95 651L91 646Q91 524 130 358Q184 168 217 103T291 -45L243 -52L107 276L91 375Q54 533 52 732Q58 999 286 1426L290 1430H294Z" />
<glyph unicode=")" glyph-name="parenright" horiz-adv-x="336" d="M45 1430L49 1426Q277 999 283 732Q281 533 244 375L228 276L92 -52L44 -45Q85 37 118 102T205 358Q244 524 244 646L240 651Q240 888 191 1017Q128 1223 2 1422L41 1430H45Z" />
<glyph unicode="*" glyph-name="asterisk" horiz-adv-x="797" />
<glyph unicode="+" glyph-name="plus" horiz-adv-x="752" d="M296 793L322 789L328 756V600L332 500L328 460L332 456L662 445L658 416L524 420L376 424L364 420L344 424H340L336 420H332L336 292V216L335 96L300 104V372L296 420H280L236 416L172 420H92Q40 420
20 412L0 420V440L12 452L296 464L292 680L296 793Z" />
<glyph unicode="," glyph-name="comma" horiz-adv-x="186" d="M71 67Q116 53 116 13V2Q92 -100 36 -100H25L10 -88Q56 -22 56 -10Q21 -10 21 28Q21 60 71 67Z" />
<glyph unicode="-" glyph-name="hyphen" horiz-adv-x="727" d="M618 493L664 474L668 454H568L324 462L17 454L20 490L24 486L288 498Q341 490 460 490L618 493Z" />
<glyph unicode="." glyph-name="period" horiz-adv-x="170" d="M21 89H30Q57 89 85 43Q67 0 39 0H17Q0 0 0 50Q0 79 21 89Z" />
<glyph unicode="/" glyph-name="slash" horiz-adv-x="465" d="M404 1397L249 867L130 395L33 4L0 12L37 138Q116 484 365 1399L404 1397Z" />
<glyph unicode="0" glyph-name="zero" horiz-adv-x="563" d="M268 1400Q408 1393 460 1199T521 752L525 619Q500 327 431 153Q333 4 272 4L227 0Q159 19 110 112Q55 210 22 371L4 570L0 574L4 578V582L0 640L4 669L0 694Q30 989 42 1018Q55 1068 91 1189Q148 1377
268 1400ZM38 640Q38 248 181 74Q210 45 227 45Q312 45 355 116Q393 146 434 293Q496 491 487 735Q480 867 448 1114T273 1355Q176 1361 118 1157Q83 1072 45 781L38 640Z" />
<glyph unicode="1" glyph-name="one" horiz-adv-x="318" d="M213 1382L217 1078L225 974L217 423L215 234V2L177 5L184 670L180 1256L177 1343L24 1183L7 1221L179 1400L213 1382Z" />
<glyph unicode="2" glyph-name="two" horiz-adv-x="558" d="M328 1411Q396 1411 473 1299Q503 1218 503 1105Q470 881 416 720Q295 451 150 212Q106 143 47 45L496 48L503 -1L2 2Q22 106 147 275Q270 486 344 637Q434 850 462 1053L465 1086V1182Q465 1261 393
1340Q335 1387 279 1353Q142 1291 122 1215Q57 1105 38 1032L0 1049Q63 1197 118 1286Q175 1352 242 1384L328 1411Z" />
<glyph unicode="3" glyph-name="three" horiz-adv-x="545" d="M496 1403L494 1364L264 1081L185 970L138 893V889Q249 895 345 822T458 641T459 438T399 251T297 107T88 0L84 4L1 7L20 55L83 42Q221 74 297 163Q413 299 417 477Q451 598 376 722T151 847L85 842L75
872L362 1280L443 1364L217 1361L2 1358L3 1400L496 1403Z" />
<glyph unicode="4" glyph-name="four" horiz-adv-x="583" d="M422 1403L410 431L537 438L538 400L413 392L411 1L380 -10L377 396L261 388L257 392H253L1 372L0 409Q32 529 181 932Q236 1038 386 1403H422ZM46 426Q63 417 93 417H97L101 422L105 417H110L372 434L376
439L380 1076L397 1317L291 1117L151 755Q94 591 80 547T46 426Z" />
<glyph unicode="5" glyph-name="five" horiz-adv-x="545" d="M144 1401L478 1398V1394L470 1348L176 1358Q141 1222 84 939Q155 1009 262 957T429 778T488 534Q477 289 358 148T89 -10L6 23Q1 78 56 43T235 88Q332 151 416 339Q450 466 450 546Q455 631 376 773T176
929L27 886L47 988L144 1401Z" />
<glyph unicode="6" glyph-name="six" horiz-adv-x="508" d="M332 1411Q437 1392 437 1352L428 1340V1335Q302 1421 176 1306Q105 1204 85 1116T42 781L40 699Q99 793 243 810Q327 810 419 696Q473 596 473 512Q479 391 464 283T416 130Q386 46 250 -3Q148 0 84
71Q8 253 4 351T4 626Q4 775 21 921T73 1185T180 1355T332 1411ZM38 631Q35 446 46 309T126 84Q159 46 225 42Q345 46 403 189Q416 225 429 256T446 465T354 710Q318 777 202 777Q118 750 86 715T38 631Z" />
<glyph unicode="7" glyph-name="seven" horiz-adv-x="514" d="M470 1399L461 1258Q457 1192 432 1071T345 762L281 593Q154 325 60 0H14Q131 359 230 565Q305 763 357 938T429 1338L201 1351L-5 1331Q0 1397 106 1394T470 1399Z" />
<glyph unicode="8" glyph-name="eight" horiz-adv-x="513" d="M259 1400Q367 1400 403 1320T437 1144Q430 945 279 787Q480 424 483 279T393 67T189 -6Q0 72 0 227Q0 450 229 789Q67 1020 57 1198Q77 1304 122 1348T259 1400ZM86 1195T119 1081T258 814Q328 893
365 987Q384 1022 399 1140Q399 1245 366 1301T264 1355Q158 1355 122 1275ZM33 305T41 202T194 31Q319 37 374 95T442 223T404 435T256 755Q149 614 72 425Q33 305 41 202Z" />
<glyph unicode="9" glyph-name="nine" horiz-adv-x="508" d="M145 -3Q40 16 40 56L49 68V73Q175 -13 301 102Q372 204 392 292T435 627L437 709Q378 615 234 598Q150 598 58 712Q4 812 4 896Q-2 1017 13 1125T61 1278Q91 1362 227 1411Q329 1408 393 1337Q469
1155 473 1057T473 782Q473 633 456 487T404 223T297 53T145 -3ZM439 777Q442 962 431 1099T351 1324Q318 1362 252 1366Q132 1362 74 1219Q61 1183 48 1152T31 943T123 698Q159 631 275 631Q359 658 391 693T439 777Z" />
<glyph unicode=":" glyph-name="colon" horiz-adv-x="159" d="M32 904Q72 904 72 864Q59 824 32 824H12Q0 828 0 848V884Q0 893 32 904ZM32 96L64 80Q64 0 28 0Q0 0 0 52Q0 78 32 96Z" />
<glyph unicode=";" glyph-name="semicolon" horiz-adv-x="170" d="M40 906H52L80 874Q76 826 40 826L36 822Q12 845 12 866Q12 887 40 906ZM44 86Q76 66 76 34Q59 -70 8 -70L0 -38Q2 -24 24 -10V-2L12 30V54Q16 86 44 86Z" />
<glyph unicode="&lt;" glyph-name="less" horiz-adv-x="1196" />
<glyph unicode="=" glyph-name="equal" horiz-adv-x="612" d="M517 486Q547 479 547 454L534 430L468 434H441L422 430L418 434H415L389 430L266 442L68 434L59 430L55 434H52L16 430Q1 438 0 446V454L16 470L19 466L237 478Q280 470 379 470L441 474L451 470L484
474H497L517 486ZM513 704Q543 697 543 672L530 648L464 652H437L417 648L414 652H411L384 648L262 660L64 652L54 648L51 652H48L12 648Q-3 656 -5 664V672L12 688L15 684L233 696Q276 688 375 688L437 692L447 688L480 692H493L513 704Z" />
<glyph unicode="&gt;" glyph-name="greater" horiz-adv-x="1196" />
<glyph unicode="?" glyph-name="question" horiz-adv-x="530" d="M193 1411Q330 1414 401 1317T466 1109Q466 1015 365 878Q303 785 263 679T210 522T204 413T189 359T168 435Q168 580 298 819Q407 998 415 1024T436 1128Q424 1287 346 1335T241 1385T159 1371T56
1264L45 1199L14 1198Q17 1273 60 1330T193 1411ZM197 139Q223 139 235 92Q230 29 197 29Q152 56 153 90T197 139ZM0 8H8L17 0H0V8Z" />
<glyph unicode="@" glyph-name="at" horiz-adv-x="752" d="M384 1400Q576 1396 648 1255Q712 1142 709 1005L712 809Q680 593 625 519T502 471T445 586L388 515Q284 468 239 530T189 677T209 868T329 1030L380 1034Q423 1021 465 942L461 996L469 1040H497L492
723L478 626Q478 511 537 511Q620 511 669 769L678 898V1072Q635 1248 563 1305T397 1365Q279 1355 210 1283T90 1081Q33 899 28 806T22 650T37 464T100 244T208 100T354 35Q450 52 505 116T588 268L621 254Q584 119 508 59T376 -1T312 0Q164 49 114 133T32 304T-13
562T-2 867T58 1108T154 1285Q243 1386 384 1400ZM248 522T312 545H316Q351 545 381 579T430 654T452 864Q430 983 371 987H367Q323 987 298 960T247 850T234 645Z" />
<glyph unicode="A" glyph-name="A" horiz-adv-x="675" d="M503 385L323 1248L312 1332Q263 889 140 382L503 385ZM512 352H134L92 216Q45 45 27 0H0L38 123Q73 232 173 676Q229 932 268 1203L302 1411L306 1415H318L363 1184Q430 889 488 606Q531 412 593 212Q622
103 663 0H634L601 85L512 352Z" />
<glyph unicode="B" glyph-name="B" horiz-adv-x="495" d="M139 1400Q283 1384 345 1317T418 1137Q391 860 180 764Q319 714 391 629T476 366Q468 120 319 57T4 0Q9 88 7 304L8 723L13 764Q13 940 0 1400H139ZM31 1210L35 1207V1203Q25 1148 45 768Q230 768 344
953Q396 1064 377 1173T283 1325T139 1367L29 1370L31 1210ZM39 727L35 28Q283 48 362 123T443 366Q443 497 384 595T160 731Q113 743 94 737T39 727Z" />
<glyph unicode="C" glyph-name="C" horiz-adv-x="519" d="M410 1417T486 1342L468 1310Q411 1381 308 1376Q160 1315 95 1093Q66 1005 51 926T33 632T58 324T144 151T239 72Q239 55 353 42V38Q425 38 486 95L498 73Q498 19 365 0Q250 0 156 84Q71 190 48 252T12
387T0 692Q0 764 20 914T80 1143Q177 1382 293 1399Z" />
<glyph unicode="D" glyph-name="D" horiz-adv-x="534" d="M0 1401Q230 1410 330 1332T467 1103T508 782Q511 563 386 292T0 0Q16 684 0 1401ZM39 1364L36 322L34 45Q54 48 105 58Q238 72 371 313Q426 439 449 527T477 776Q482 995 412 1177Q342 1340 171 1359L39 1364Z" />
<glyph unicode="E" glyph-name="E" horiz-adv-x="444" d="M399 1397V1360Q101 1349 29 1368L36 961V768H336L332 731L37 734L42 389L37 221L44 45L296 43L399 34L396 1Q260 22 -1 0L4 307L7 966L-1 1400Q235 1379 399 1397Z" />
<glyph unicode="F" glyph-name="F" horiz-adv-x="421" d="M399 1397V1360Q245 1349 29 1368L36 961V758L296 768L302 731L37 724L42 389V0H-1L4 307L7 966L-1 1400Q235 1389 399 1397Z" />
<glyph unicode="G" glyph-name="G" horiz-adv-x="585" d="M342 1411Q464 1408 511 1348L494 1324Q449 1377 343 1380Q238 1349 139 1190T31 647Q59 321 133 176T294 27T433 122T505 346T517 733L330 735V768H547Q556 375 510 224T398 23T252 -5T92 195T4 640L0
644Q9 980 96 1168T342 1411Z" />
<glyph unicode="H" glyph-name="H" horiz-adv-x="550" d="M16 1400H49Q38 914 44 768L286 765L490 768Q497 1262 504 1400H532Q525 945 523 803T520 283L516 -1L485 -2Q486 381 497 733L313 734L44 731L50 641L43 170L42 4H38L5 2Q17 86 12 268L16 1400Z" />
<glyph unicode="I" glyph-name="I" horiz-adv-x="98" d="M48 1400L46 792L43 461L44 0H0L8 208L12 1400H48Z" />
<glyph unicode="J" glyph-name="J" horiz-adv-x="483" d="M448 1400L447 542Q456 242 387 125T238 8L181 0Q87 20 46 94T-3 255H36Q53 152 80 98T205 25Q300 37 361 142T423 612L419 908L411 1400H448Z" />
<glyph unicode="K" glyph-name="K" horiz-adv-x="512" d="M58 1395Q36 1326 35 1064L36 572L447 1399L486 1402L333 1087L178 771L222 674Q398 242 447 134L489 0H449Q396 184 337 301L234 559L154 729Q102 625 38 514L33 476L38 376L44 0H7V217L0 610Q1 1395
26 1395L30 1399L58 1395Z" />
<glyph unicode="L" glyph-name="L" horiz-adv-x="450" d="M17 1400H46L32 277L31 35L167 50L431 36L428 7L309 17L305 13Q146 21 33 0Q7 0 0 46L4 372L17 1400Z" />
<glyph unicode="M" glyph-name="M" horiz-adv-x="770" d="M41 1400Q142 1124 188 946T296 517T381 81Q535 714 654 1225L686 1402L723 1401L734 711H738L734 707V331L739 0H700L706 48L705 295L690 954L697 1332Q636 997 555 669L388 0H371Q312 294 269 504L174
879Q99 1122 37 1327L47 812L51 489L36 0H0L19 303V396Q19 698 10 1400H41Z" />
<glyph unicode="N" glyph-name="N" horiz-adv-x="601" d="M568 1400V879L560 389L562 0H533L483 123Q402 324 114 1047L31 1275V0H3L1 788L5 1400H27L45 1317Q231 831 421 360L534 60L532 348L540 736V986L544 1158H540L544 1162L541 1400H568Z" />
<glyph unicode="O" glyph-name="O" horiz-adv-x="1416" d="M696 2Q409 2 211 208T12 708Q12 999 212 1205T696 1411Q978 1411 1178 1205T1378 708Q1378 415 1180 209T696 2ZM695 1379Q424 1379 234 1183T44 707Q44 427 234 231T695 34Q965 34 1155 230T1346 707Q1346
987 1157 1183T695 1379Z" />
<glyph unicode="P" glyph-name="P" horiz-adv-x="439" d="M5 1403Q115 1410 177 1394T274 1362T349 1297Q391 1234 407 1065Q407 877 312 753T41 564L34 323V162L42 0H5L1 174L6 839L5 1403ZM38 1367L40 874L36 607Q176 637 258 757Q374 873 370 1060Q365 1284
244 1333T38 1367Z" />
<glyph unicode="Q" glyph-name="Q" horiz-adv-x="647" d="M492 200Q508 236 521 280Q584 486 580 700Q578 973 551 1114T454 1319T309 1368Q232 1320 161 1223Q54 1081 33 772Q33 444 62 329T128 137T298 32Q405 36 473 161L320 432L352 450L458 262L492 200ZM492
129Q410 0 301 3Q5 0 -1 700Q5 1243 301 1400Q455 1404 517 1295T597 1007T610 700Q597 312 512 163L514 159L597 17L559 -5L529 63L492 129Z" />
<glyph unicode="R" glyph-name="R" horiz-adv-x="497" d="M126 1400Q213 1400 315 1319Q393 1221 406 1071Q409 851 264 690Q225 637 94 584Q134 497 215 399T478 0H446Q308 228 199 370T61 572L39 579L43 396L35 0L5 -3L9 958L5 1399L126 1400ZM38 1374L37 1133V618L79
621Q193 647 288 771Q373 891 370 1067Q359 1239 269 1308T94 1368L38 1374Z" />
<glyph unicode="S" glyph-name="S" horiz-adv-x="929" d="M860 295Q864 144 803 70T679 -18H675Q522 -15 446 156Q431 104 403 70Q341 -5 279 -18H275Q70 -14 3 291L43 303Q52 174 138 82Q210 16 271 16Q391 54 423 241L426 298V302L460 300Q461 255 458 221Q481
143 538 82Q610 16 671 16Q793 55 821 213L827 320Q821 396 799 444T706 557T519 700T196 914Q67 1034 47 1141V1145Q53 1295 125 1354T318 1416Q383 1413 431 1317L469 1238Q488 1315 535 1354Q597 1416 718 1416Q803 1413 851 1317L900 1207H866Q831 1302 806
1332T712 1386Q591 1376 534 1302Q509 1264 484 1188L455 1193Q411 1302 396 1332T312 1386Q161 1359 124 1302T86 1175V1128Q99 1004 432 801Q672 640 768 547T860 295Z" />
<glyph unicode="T" glyph-name="T" horiz-adv-x="585" d="M548 1393L547 1364L470 1366H391L269 1370L266 1011L265 633L269 628L265 244V0H236V454L233 1128L236 1341L232 1366L-3 1357V1393L479 1399L548 1393Z" />
<glyph unicode="U" glyph-name="U" horiz-adv-x="568" d="M533 1400L534 902L522 353Q509 242 479 185Q426 70 318 23Q283 0 244 0Q76 0 25 210Q4 304 4 336L0 954L11 1278L9 1400H36L40 1299L29 904V551L34 416V353Q52 129 116 80Q129 59 177 43T266 30T393 106Q479
198 492 363L499 534L505 925L503 1013Q505 1262 500 1399L533 1400Z" />
<glyph unicode="V" glyph-name="V" horiz-adv-x="598" d="M32 1400Q22 1285 166 578Q216 354 250 201L275 59L428 853Q428 937 517 1304L539 1400H573Q512 1189 502 1070Q475 989 422 689Q320 172 292 0H257Q97 709 -7 1400H32Z" />
<glyph unicode="W" glyph-name="W" horiz-adv-x="1068" d="M520 1360Q475 1282 395 1112Q350 986 312 924H277Q117 1165 13 1400H52Q42 1361 186 1120Q236 1044 270 992L295 944L408 1214Q438 1270 487 1367L509 1400H532Q559 1337 606 1216Q693 1044 720 992L745
944L898 1214Q918 1265 987 1367L999 1400H1033Q982 1328 952 1259Q919 1206 866 1105Q790 982 762 924H727Q600 1151 520 1360ZM512 904Q478 819 398 649Q353 523 315 461H280Q120 702 16 937H55Q45 898 189 658Q239 582 273 530L298 481L411 751Q441 807 490
905L512 937H535Q562 874 609 753Q696 582 723 530L748 481L901 751Q921 803 990 905L1002 937H1036Q985 866 955 797Q922 743 869 642Q793 520 765 461H730Q603 689 512 904ZM532 438Q492 360 412 190Q367 64 329 2H294Q134 243 30 478H69Q59 439 203 199Q253
122 287 70L312 22L425 292Q455 348 504 446L526 478H549Q576 415 623 294Q710 122 737 70L762 22L915 292Q935 344 1004 446L1016 478H1050Q999 407 969 337Q936 284 883 183Q807 61 779 2H744Q617 230 532 438Z" />
<glyph unicode="X" glyph-name="X" horiz-adv-x="668" d="M581 1400H613Q492 1085 354 764L337 696Q406 531 496 321L573 154Q606 66 656 0H610L545 150Q412 437 320 664Q280 590 215 415Q192 373 113 179L32 0H-3L57 126Q203 453 301 708Q208 931 134 1085Q62
1260 16 1400H42L53 1361L171 1077L321 742Q455 1082 559 1344L581 1400Z" />
<glyph unicode="Y" glyph-name="Y" horiz-adv-x="538" d="M486 1395L521 1396Q426 1104 405 1053T279 752L274 441L270 380Q274 211 262 0H229L238 391L245 760L101 1090Q51 1193 -3 1397L31 1407L72 1246Q166 1002 272 806L266 823Q387 1041 486 1395Z" />
<glyph unicode="Z" glyph-name="Z" horiz-adv-x="498" d="M475 1400L476 1375Q446 1278 333 983Q284 836 230 668Q164 452 109 256L42 27L242 33L373 29L365 0L222 4L0 0L249 837Q354 1135 438 1363L262 1359L67 1355L62 1384L475 1400Z" />
<glyph unicode="[" glyph-name="bracketleft" horiz-adv-x="569" />
<glyph unicode="\" glyph-name="backslash" horiz-adv-x="465" d="M39 1399Q288 484 367 138L404 12L371 4L274 395L155 867L0 1397L39 1399Z" />
<glyph unicode="]" glyph-name="bracketright" horiz-adv-x="569" />
<glyph unicode="^" glyph-name="asciicircum" horiz-adv-x="961" />
<glyph unicode="_" glyph-name="underscore" horiz-adv-x="1416" d="M696 2Q409 2 211 208T12 708Q12 999 212 1205T696 1411Q978 1411 1178 1205T1378 708Q1378 415 1180 209T696 2ZM695 1379Q424 1379 234 1183T44 707Q44 427 234 231T695 34Q965 34 1155 230T1346
707Q1346 987 1157 1183T695 1379Z" />
<glyph unicode="`" glyph-name="grave" horiz-adv-x="1068" d="M505 1338Q490 1206 473 1130T375 553Q330 182 292 0H257Q97 709 -7 1400H32Q22 1285 166 578Q216 354 250 201L275 59L388 853Q418 1017 467 1304L489 1400H532Q559 1215 606 858Q693 354 720 201L745
59L898 853Q918 1004 987 1304L999 1400H1033Q982 1189 952 986Q919 829 866 532Q790 172 762 0H727Q600 669 505 1338Z" />
<glyph unicode="a" glyph-name="a" horiz-adv-x="675" d="M503 385L323 1248L312 1332Q263 889 140 382L503 385ZM512 352H134L92 216Q45 45 27 0H0L38 123Q73 232 173 676Q229 932 268 1203L302 1411L306 1415H318L363 1184Q430 889 488 606Q531 412 593 212Q622
103 663 0H634L601 85L512 352Z" />
<glyph unicode="b" glyph-name="b" horiz-adv-x="495" d="M139 1400Q283 1384 345 1317T418 1137Q391 860 180 764Q319 714 391 629T476 366Q468 120 319 57T4 0Q9 88 7 304L8 723L13 764Q13 940 0 1400H139ZM31 1210L35 1207V1203Q25 1148 45 768Q230 768 344
953Q396 1064 377 1173T283 1325T139 1367L29 1370L31 1210ZM39 727L35 28Q283 48 362 123T443 366Q443 497 384 595T160 731Q113 743 94 737T39 727Z" />
<glyph unicode="c" glyph-name="c" horiz-adv-x="519" d="M410 1417T486 1342L468 1310Q411 1381 308 1376Q160 1315 95 1093Q66 1005 51 926T33 632T58 324T144 151T239 72Q239 55 353 42V38Q425 38 486 95L498 73Q498 19 365 0Q250 0 156 84Q71 190 48 252T12
387T0 692Q0 764 20 914T80 1143Q177 1382 293 1399Z" />
<glyph unicode="d" glyph-name="d" horiz-adv-x="534" d="M0 1401Q230 1410 330 1332T467 1103T508 782Q511 563 386 292T0 0Q16 684 0 1401ZM39 1364L36 322L34 45Q54 48 105 58Q238 72 371 313Q426 439 449 527T477 776Q482 995 412 1177Q342 1340 171 1359L39 1364Z" />
<glyph unicode="e" glyph-name="e" horiz-adv-x="421" d="M399 1397V1360Q101 1349 29 1368L36 961V768H336L342 741L37 734L42 389L37 221L44 45L296 43L399 34L396 1Q260 22 -1 0L4 307L7 966L-1 1400Q235 1379 399 1397Z" />
<glyph unicode="f" glyph-name="f" horiz-adv-x="421" d="M399 1397V1360Q245 1349 29 1368L36 961V758L296 768L302 741L37 724L42 389V0H-1L4 307L7 966L-1 1400Q235 1389 399 1397Z" />
<glyph unicode="g" glyph-name="g" horiz-adv-x="585" d="M362 1411Q464 1408 511 1348L494 1324Q449 1377 363 1380Q258 1349 149 1190T31 647Q59 321 133 176T294 27T433 122T505 346T517 733L330 735V768H547Q556 375 510 224T398 23T252 -5T92 195T4 640L0
644Q9 980 101 1168T362 1411Z" />
<glyph unicode="h" glyph-name="h" horiz-adv-x="550" d="M16 1400H49Q38 914 44 768L286 765L490 768Q497 1262 504 1400H532Q525 945 523 803T520 283L516 -1L485 -2Q486 381 487 743L313 734L44 741L50 641L43 170L42 4H38L5 2Q17 86 12 268L16 1400Z" />
<glyph unicode="i" glyph-name="i" horiz-adv-x="98" d="M48 1400L46 792L43 461L44 0H0L8 208L12 1400H48Z" />
<glyph unicode="j" glyph-name="j" horiz-adv-x="483" d="M448 1400L447 542Q456 242 387 125T238 8L181 0Q87 20 46 94T-3 255H36Q53 152 80 98T205 25Q300 37 361 142T423 612L419 908L411 1400H448Z" />
<glyph unicode="k" glyph-name="k" horiz-adv-x="512" d="M58 1395Q36 1326 35 1064L36 572L447 1399L486 1402L333 1087L178 771L222 674Q398 242 447 134L489 0H449Q396 184 337 301L234 559L154 729Q102 625 38 514L33 476L38 376L44 0H7V217L0 610Q1 1395
26 1395L30 1399L58 1395Z" />
<glyph unicode="l" glyph-name="l" horiz-adv-x="450" d="M17 1400H46L32 277L31 35L167 50L431 36L428 7L309 17L305 13Q146 21 33 0Q7 0 0 46L4 372L17 1400Z" />
<glyph unicode="m" glyph-name="m" horiz-adv-x="770" d="M41 1400Q142 1124 188 946T296 517T381 81Q535 714 654 1225L686 1402L723 1401L734 711H738L734 707V331L739 0H700L706 48L705 295L690 954L697 1332Q636 997 555 669L388 0H371Q312 294 269 504L174
879Q99 1122 37 1327L47 812L51 489L36 0H0L19 303V396Q19 698 10 1400H41Z" />
<glyph unicode="n" glyph-name="n" horiz-adv-x="601" d="M568 1400V879L560 389L562 0H533L483 123Q402 324 114 1047L31 1275V0H3L1 788L5 1400H27L45 1317Q231 831 421 360L534 60L532 348L540 736V986L544 1158H540L544 1162L541 1400H568Z" />
<glyph unicode="o" glyph-name="o" horiz-adv-x="647" d="M455 1404T517 1295T597 1007T610 700Q596 294 504 150Q419 0 301 3Q5 0 -1 700Q5 1243 301 1400Q455 1404 517 1295ZM33 772Q33 444 62 329T128 137T298 32Q448 38 521 280Q584 486 580 700Q578 973 551
1114T454 1319T309 1368Q232 1320 161 1223Q54 1081 33 772Z" />
<glyph unicode="p" glyph-name="p" horiz-adv-x="439" d="M5 1403Q115 1410 177 1394T274 1362T349 1297Q391 1234 407 1065Q407 877 312 753T41 564L34 323V162L42 0H5L1 174L6 839L5 1403ZM38 1367L40 874L36 607Q176 637 258 757Q374 873 370 1060Q365 1284
244 1333T38 1367Z" />
<glyph unicode="q" glyph-name="q" horiz-adv-x="647" d="M492 200Q508 236 521 280Q584 486 580 700Q578 973 551 1114T454 1319T309 1368Q232 1320 161 1223Q54 1081 33 772Q33 444 62 329T128 137T298 32Q405 36 473 161L320 432L352 450L458 262L492 200ZM492
129Q410 0 301 3Q5 0 -1 700Q5 1243 301 1400Q455 1404 517 1295T597 1007T610 700Q597 312 512 163L514 159L597 17L559 -5L529 63L492 129Z" />
<glyph unicode="r" glyph-name="r" horiz-adv-x="497" d="M126 1400Q213 1400 315 1319Q393 1221 406 1071Q409 851 264 690Q225 637 94 584Q134 497 215 399T478 0H446Q308 228 199 370T61 572L39 579L43 396L35 0L5 -3L9 958L5 1399L126 1400ZM38 1374L37 1133V618L79
621Q193 647 288 771Q373 891 370 1067Q359 1239 269 1308T94 1368L38 1374Z" />
<glyph unicode="s" glyph-name="s" horiz-adv-x="514" d="M318 1416Q403 1413 451 1317L494 1227L472 1210Q431 1302 406 1332T312 1386Q191 1359 154 1302T116 1175V1128Q109 1004 259 809Q382 640 426 546T460 295Q464 144 403 70T279 -18H275Q70 -14 3 291L43
303Q52 174 138 82Q210 16 271 16Q393 55 421 213L425 265Q430 455 388 538T289 700T159 891Q77 1034 77 1141V1145Q83 1295 155 1354T318 1416Z" />
<glyph unicode="t" glyph-name="t" horiz-adv-x="585" d="M548 1393L547 1364L470 1366H391L269 1370L266 1011L265 633L269 628L265 244V0H236V454L233 1128L236 1341L232 1366L-3 1357V1393L479 1399L548 1393Z" />
<glyph unicode="u" glyph-name="u" horiz-adv-x="568" d="M533 1400L534 902L522 353Q509 242 479 185Q426 70 318 23Q283 0 244 0Q76 0 25 210Q4 304 4 336L0 954L11 1278L9 1400H36L40 1299L29 904V551L34 416V353Q52 129 116 80Q129 59 177 43T266 30T393 106Q479
198 492 363L499 534L505 925L503 1013Q505 1262 500 1399L533 1400Z" />
<glyph unicode="v" glyph-name="v" horiz-adv-x="598" d="M32 1400Q22 1285 166 578Q216 354 250 201L275 59L428 853Q428 937 517 1304L539 1400H573Q512 1189 502 1070Q475 989 422 689Q320 172 292 0H257Q97 709 -7 1400H32Z" />
<glyph unicode="w" glyph-name="w" horiz-adv-x="1068" d="M505 1338Q490 1206 473 1130T375 553Q330 182 292 0H257Q97 709 -7 1400H32Q22 1285 166 578Q216 354 250 201L275 59L388 853Q418 1017 467 1304L489 1400H532Q559 1215 606 858Q693 354 720 201L745
59L898 853Q918 1004 987 1304L999 1400H1033Q982 1189 952 986Q919 829 866 532Q790 172 762 0H727Q600 669 505 1338Z" />
<glyph unicode="x" glyph-name="x" horiz-adv-x="668" d="M581 1400H613Q492 1085 354 764L337 696Q406 531 496 321L573 154Q606 66 656 0H610L545 150Q412 437 320 664Q280 590 215 415Q192 373 113 179L32 0H-3L57 126Q203 453 301 708Q208 931 134 1085Q62
1260 16 1400H42L53 1361L171 1077L321 742Q455 1082 559 1344L581 1400Z" />
<glyph unicode="y" glyph-name="y" horiz-adv-x="538" d="M486 1395L521 1396Q426 1104 405 1053T279 752L274 441L270 380Q274 211 262 0H229L238 391L245 760L101 1090Q51 1193 -3 1397L31 1407L72 1246Q166 1002 272 806L266 823Q387 1041 486 1395Z" />
<glyph unicode="z" glyph-name="z" horiz-adv-x="498" d="M475 1400L476 1375Q446 1278 333 983Q284 836 230 668Q164 452 109 256L42 27L242 33L373 29L365 0L222 4L0 0L249 837Q354 1135 438 1363L262 1359L67 1355L62 1384L475 1400Z" />
<glyph unicode="{" glyph-name="braceleft" horiz-adv-x="684" />
<glyph unicode="|" glyph-name="bar" horiz-adv-x="532" />
<glyph unicode="}" glyph-name="braceright" horiz-adv-x="684" />
<glyph unicode="~" glyph-name="asciitilde" horiz-adv-x="1196" />
</font>
</defs>
</svg>
